HIERARCHY
ROOT ui
{
	 OFFSET 0 0 0
	 CHANNELS 3 XPosition YPosition Z Position
	 EndSite
	 {
	 OFFSET 0 -1 0
	 }
}
ROOT li
{
	 OFFSET 0 0 0
	 CHANNELS 3 XPosition YPosition Z Position
	 EndSite
	 {
	 OFFSET 0 -1 0
	 }
}
ROOT ul
{
	 OFFSET 0 0 0
	 CHANNELS 3 XPosition YPosition Z Position
	 EndSite
	 {
	 OFFSET 0 -1 0
	 }
}
ROOT ll
{
	 OFFSET 0 0 0
	 CHANNELS 3 XPosition YPosition Z Position
	 EndSite
	 {
	 OFFSET 0 -1 0
	 }
}
ROOT tt
{
	 OFFSET 0 0 0
	 CHANNELS 3 XPosition YPosition Z Position
	 EndSite
	 {
	 OFFSET 0 -1 0
	 }
}
ROOT tb
{
	 OFFSET 0 0 0
	 CHANNELS 3 XPosition YPosition Z Position
	 EndSite
	 {
	 OFFSET 0 -1 0
	 }
}
ROOT td
{
	 OFFSET 0 0 0
	 CHANNELS 3 XPosition YPosition Z Position
	 EndSite
	 {
	 OFFSET 0 -1 0
	 }
}
ROOT v
{
	 OFFSET 0 0 0
	 CHANNELS 3 XPosition YPosition Z Position
	 EndSite
	 {
	 OFFSET 0 -1 0
	 }
}
ROOT bn
{
	 OFFSET 0 0 0
	 CHANNELS 3 XPosition YPosition Z Position
	 EndSite
	 {
	 OFFSET 0 -1 0
	 }
}
MOTION
Frames: 27
Frame Time: 0.002
0.005219151020050048	-0.004607491970062256	0		0.5746348876953125	-2.66806884765625	0		-1.040550537109375	0.018144210815429686	0		-0.5884995727539063	-2.854464111328125	0		1.9894573974609375	-1.5665869140625	0		3.4733193359375	-0.9002666015625	0		4.70288671875	-0.18786766052246093	0		5.9271318359375	0.37959793090820315	0		-0.12381076049804687	5.9262197265625	0		
0.015564151763916016	0.005229183197021484	0		0.5929039306640626	-2.659372802734375	0		-0.965389892578125	0.01596295642852783	0		-0.521545654296875	-2.86552587890625	0		1.98578564453125	-1.5555697021484376	0		3.474308837890625	-0.9113595581054688	0		4.69897265625	-0.19390823364257812	0		5.9270859375	0.36446728515625	0		-0.13866824340820313	5.915462890625	0		
6.870800256729126E-4	4.647020101547241E-4	0		0.5919848022460937	-2.662378173828125	0		-1.0401624755859376	0.01818824005126953	0		-0.5634971923828125	-2.869842041015625	0		1.9701395263671875	-1.543373779296875	0		3.4825966796875	-0.9045889892578125	0		4.7040234375	-0.20312068176269532	0		5.92655419921875	0.38031463623046874	0		-0.13830642700195311	5.9154609375	0		
0.005815874099731446	-0.004624906063079834	0		0.5900787353515625	-2.6643740234375	0		-0.9649778442382813	0.01600421905517578	0		-0.4917896728515625	-2.89598974609375	0		1.954495849609375	-1.531189697265625	0		3.456781494140625	-0.9042901611328125	0		4.6911640625	-0.2070691833496094	0		5.9275185546875	0.364103759765625	0		-0.005540517807006836	5.93732763671875	0		
-0.01996986961364746	-0.004219385147094726	0		0.5652796020507812	-2.659006103515625	0		-1.0397403564453125	0.01823434829711914	0		-0.5218866577148438	-2.90850048828125	0		1.9498309326171874	-1.5201932373046876	0		3.446058837890625	-0.898249267578125	0		4.68420751953125	-0.21713429260253905	0		5.91485693359375	0.37108956909179686	0		-0.13748985290527344	5.91544677734375	0		
0.006231444835662842	-0.004655917167663574	0		0.5923301391601562	-2.66248095703125	0		-0.9645607299804687	0.016044837951660156	0		-0.5160370483398438	-2.92359228515625	0		1.9571219482421875	-1.5113995361328125	0		3.481159912109375	-0.9029641723632813	0		4.69337060546875	-0.2194766845703125	0		5.92820361328125	0.37863385009765627	0		-0.10475429534912109	5.9339150390625	0		
-0.009395627021789551	0.006583374977111816	0		0.5715780029296875	-2.6521845703125	0		-1.0261646728515625	0.029069713592529297	0		-0.5091602478027344	-2.935701416015625	0		1.951658447265625	-1.486404541015625	0		3.440790771484375	-0.873465087890625	0		4.6828310546875	-0.2025122833251953	0		5.9152841796875	0.37058306884765624	0		-0.0032656309604644778	5.93626318359375	0		
0.006599277973175049	-0.004692666053771973	0		0.6204690551757812	-2.6630224609375	0		-0.970962646484375	0.0302022705078125	0		-0.48842413330078127	-2.955035888671875	0		1.944884033203125	-1.4793944091796876	0		3.43560400390625	-0.8935487670898438	0		4.68065673828125	-0.22369866943359376	0		5.919361328125	0.36324365234375	0		-0.17026475524902343	5.9109638671875	0		
-0.012130307197570802	0.0026006441116333007	0		0.5655576782226562	-2.659169677734375	0		-1.0467808837890624	0.032470169067382815	0		-0.4887637023925781	-2.97702587890625	0		1.938101806640625	-1.4713853759765625	0		3.417931396484375	-0.88042919921875	0		4.6746708984375	-0.2318287658691406	0		5.91153271484375	0.3630885314941406	0		-0.003390105962753296	5.93724658203125	0		
0.006881440162658691	-0.004718892097473145	0		0.592506591796875	-2.662648193359375	0		-0.97067724609375	0.030267375946044922	0		-0.4782855529785156	-3.0081884765625	0		1.937372802734375	-1.4584737548828124	0		3.4528662109375	-0.890173828125	0		4.6637900390625	-0.23188259887695312	0		5.9116787109375	0.36279580688476565	0		-0.1353527069091797	5.9153974609375	0		
-0.015950075149536135	-3.459579944610596E-4	0		0.567559326171875	-2.657271728515625	0		-1.037435546875	0.03941000747680664	0		-0.47766351318359374	-3.028181884765625	0		1.937678955078125	-1.441575927734375	0		3.41528759765625	-0.8677290649414062	0		4.6769423828125	-0.22833204650878905	0		5.9159111328125	0.36943133544921875	0		-0.12076301574707031	5.927169921875	0		
0.012296186447143555	0.010199074745178222	0		0.595487060546875	-2.65775537109375	0		-0.9623909301757813	0.03723640060424805	0		-0.4879307861328125	-3.03898486328125	0		1.90277685546875	-1.435094970703125	0		3.42732666015625	-0.8670971069335938	0		4.67875244140625	-0.24359878540039062	0		5.91599951171875	0.36913131713867187	0		-0.13456605529785157	5.9164140625	0		
-0.011795505523681641	0.002613693952560425	0		0.5653531494140625	-2.659273681640625	0		-0.9723180541992188	0.03947050094604492	0		-0.44568902587890624	-3.07764501953125	0		1.9248824462890626	-1.42654248046875	0		3.428597412109375	-0.8502802734375	0		4.68189111328125	-0.23688023376464845	0		5.919939453125	0.3617694396972656	0		-0.13421455383300782	5.916439453125	0		
0.007088744163513184	-0.004668168067932129	0		0.5823099365234375	-2.65355517578125	0		-0.9763790283203125	0.03562063598632813	0		-0.4600981750488281	-3.092356201171875	0		1.91205859375	-1.411401611328125	0		3.425488525390625	-0.8543831176757812	0		4.6877314453125	-0.24619869995117188	0		5.911962890625	0.3616150207519531	0		-0.13487744140625	5.917494140625	0		
-0.01894008445739746	-0.004191845893859863	0		0.5630075073242188	-2.661224365234375	0		-0.982325439453125	0.040815975189208986	0		-0.38398516845703123	-3.134560302734375	0		1.91400146484375	-1.4084913330078126	0		3.41071240234375	-0.8362723999023437	0		4.67465478515625	-0.24818504333496094	0		5.91679931640625	0.35226605224609375	0		-0.0012502479553222656	5.937333984375	0		
0.01005540657043457	-6.149560213088989E-4	0		0.5746885986328125	-2.66839208984375	0		-0.97327490234375	0.0477740478515625	0		-0.48437890625	-3.14381396484375	0		1.8759190673828126	-1.4048951416015625	0		3.431567138671875	-0.8387337036132813	0		4.683541015625	-0.25050991821289065	0		5.929865234375	0.35881088256835936	0		-0.117252685546875	5.924328125	0		
-0.008925617218017578	0.006777102947235107	0		0.5966788330078125	-2.6557119140625	0		-0.9693070068359375	0.05182772064208984	0		-0.37910736083984375	-3.173482421875	0		1.9208642578125	-1.398658447265625	0		3.42684619140625	-0.8137361450195313	0		4.68829443359375	-0.258732666015625	0		5.916666015625	0.35183111572265624	0		-8.451189994812012E-4	5.9374697265625	0		
0.01200600528717041	0.010519209861755372	0		0.5913207397460938	-2.6625576171875	0		-0.9853348388671875	0.058228553771972655	0		-0.4296143188476563	-3.187533447265625	0		1.90967578125	-1.398458984375	0		3.4066494140625	-0.8154473266601563	0		4.68815087890625	-0.25883084106445314	0		5.9037001953125	0.3608990478515625	0		-0.0017175730466842652	5.93858056640625	0		
-0.01633751678466797	1.024079993367195E-4	0		0.6149769897460937	-2.6678681640625	0		-0.9255548706054687	0.05436871719360352	0		-0.3983635559082031	-3.215939208984375	0		1.9074134521484376	-1.4013797607421874	0		3.432638671875	-0.804892333984375	0		4.69207861328125	-0.2529508056640625	0		5.916396484375	0.35158758544921875	0		-0.13404025268554687	5.9179111328125	0		
0.006400009155273437	-0.0041539459228515626	0		0.5887627563476563	-2.66431982421875	0		-0.9997348022460938	0.055768455505371094	0		-0.4067977294921875	-3.224662841796875	0		1.907181396484375	-1.4013050537109375	0		3.4475224609375	-0.7991143188476563	0		4.68371240234375	-0.26281985473632813	0		5.91206396484375	0.3426161193847656	0		-0.13406294250488282	5.91804443359375	0		
-0.019814531326293947	-0.003571624994277954	0		0.5884868774414063	-2.664187744140625	0		-0.995885009765625	0.05986705017089844	0		-0.40542269897460936	-3.2445400390625	0		1.906932861328125	-1.4012015380859375	0		3.441725341796875	-0.7729468994140625	0		4.7136865234375	-0.2512832794189453	0		5.90700537109375	0.35171563720703125	0		-0.0017843250036239625	5.938966796875	0		
0.01610832405090332	0.005979936122894287	0		0.5632965087890625	-2.658616455078125	0		-0.9979727172851562	0.06907273864746094	0		-0.3999794921875	-3.260473876953125	0		1.906672607421875	-1.4010693359375	0		3.42552685546875	-0.7695673217773438	0		4.69556298828125	-0.24388858032226562	0		5.90677001953125	0.35179119873046877	0		-0.0019407000541687013	5.9391259765625	0		
0.00874986743927002	2.712189853191376E-4	0		0.6138790283203125	-2.667305908203125	0		-1.018194091796875	0.07158846282958985	0		-0.38937823486328127	-3.267483154296875	0		1.9033551025390625	-1.4038580322265626	0		3.457595947265625	-0.7499588623046874	0		4.732095703125	-0.256367919921875	0		5.9155126953125	0.3517742919921875	0		-0.002161078929901123	5.93929833984375	0		
0.0054099888801574705	-0.003492913007736206	0		0.5586839599609374	-2.6621943359375	0		-1.018467041015625	0.07177220916748046	0		-0.3751387939453125	-3.296547607421875	0		1.9030836181640625	-1.4036715087890625	0		3.4324453125	-0.7423504638671875	0		4.712943359375	-0.24885939025878906	0		5.90624072265625	0.35211642456054687	0		-0.13480859375	5.9187109375	0		
0.005124049186706543	-0.0032972509860992433	0		0.5833304443359375	-2.667414794921875	0		-0.9447808837890626	0.06971375274658204	0		-0.3835502319335938	-3.30521875	0		1.9028082275390625	-1.40346142578125	0		3.467294921875	-0.734719482421875	0		4.7446044921875	-0.25216661071777347	0		5.9107998046875	0.34327392578125	0		-0.13513946533203125	5.91890576171875	0		
-0.02117110824584961	-0.0026538920402526854	0		0.5700358276367188	-2.668982177734375	0		-1.0190534057617187	0.07215200805664063	0		-0.3431131591796875	-3.323705810546875	0		1.9094095458984375	-1.4103468017578125	0		3.480138671875	-0.7266868286132813	0		4.73336083984375	-0.24871202087402344	0		5.91463037109375	0.3514911193847656	0		0.028182218551635742	5.95935986328125	0		
0.014680466651916503	0.006954568862915039	0		0.6247162475585938	-2.67268017578125	0		-0.9362603149414063	0.07795196533203125	0		-0.34437884521484374	-3.324479736328125	0		1.90912451171875	-1.4100953369140625	0		3.474447021484375	-0.6903101196289062	0		4.7701328125	-0.24403028869628907	0		5.91017822265625	0.34388619995117187	0		0.011609634399414063	5.95084619140625	0		
